# xmcd CD database file
#
# Track frame offsets:
#	182
#	24555
#	47510
#	84257
#	110752
#	134510
#	170517
#	195077
#
# Disc length: 2947 seconds
#
# Revision: 0
# Processed by: cddbd v1.5.2PL0 Copyright (c) Steve Scherf et al.
# Submitted via: CDex 1.51
#
DISCID=5e0b8108
DTITLE=West Indies Jazz Band - New World Musique
DYEAR=1992
DGENRE=Jazz
TTITLE0=Ou Save
TTITLE1=Fancy Sailor
TTITLE2=Sledge
TTITLE3=Take me to the River
TTITLE4=Pas à Pas
TTITLE5=Concerto pour Steel Pan, Vibraphone et Orchestre (Part.1)
TTITLE6=Concerto pour Steel Pan, Vibraphone et Orchestre (Part.2)
TTITLE7=Concerto pour Steel Pan, Vibraphone et Orchestre (Part.3)
EXTD=YEAR: 1992
EXTT0=
EXTT1=
EXTT2=
EXTT3=
EXTT4=
EXTT5=
EXTT6=
EXTT7=
PLAYORDER=
